<svg width="39" height="36" viewBox="0 0 39 36" fill="none" xmlns="http://www.w3.org/2000/svg">
<path d="M22.2264 12.9325V16.1071" stroke="#E0E1E6" stroke-width="0.309898" stroke-miterlimit="800"/>
<path fill-rule="evenodd" clip-rule="evenodd" d="M15.8773 0.303702C16.6234 0.0857253 17.6383 0.030297 18.4928 0.15853C19.1603 0.260232 20.5627 0.799087 21.2708 1.23072C22.4472 1.94188 23.3237 2.75774 24.0792 3.84107C24.4159 4.31472 24.5746 4.60126 24.9959 5.49851C25.4543 6.47464 25.5136 6.63934 25.6069 7.107C25.6632 7.39345 25.72 7.75788 25.7306 7.92139C25.8398 9.52484 25.2725 10.8924 24.1038 11.8504C23.5816 12.2761 22.5548 12.7162 21.821 12.8321C20.828 12.9856 19.7561 12.8812 18.6757 12.5281C16.7493 11.8984 15.2283 10.8377 14.1293 9.35605C13.6035 8.64628 12.9853 7.32999 12.7981 6.52134C12.2784 4.27431 12.773 2.39333 14.2031 1.21029C14.5961 0.881295 15.4085 0.445659 15.8773 0.303702ZM15.7543 3.3219C15.0918 3.90985 15.3866 5.69085 16.3748 7.11615C17.0124 8.03821 18.0254 8.95245 19.0013 9.493C20.3377 10.2373 21.7975 10.322 22.5169 9.70134C22.9625 9.31759 23.1142 8.50024 22.8931 7.68345C22.3841 5.7924 20.5237 3.86809 18.5116 3.15829C17.3135 2.7341 16.3423 2.79304 15.7543 3.3219Z" fill="#F03A31"/>
<path fill-rule="evenodd" clip-rule="evenodd" d="M27.535 0.102597C27.3008 0.206099 27.0447 0.467577 26.9467 0.701814C26.8813 0.865239 26.756 6.53057 26.7506 9.67374C26.7451 11.9617 26.7615 12.1087 27.0774 12.4901C27.6167 13.1438 28.7171 13.0947 29.1474 12.3975C29.3708 12.0325 29.3817 11.9017 29.3653 9.15078C29.349 6.31812 29.3817 5.79517 29.605 5.15782C29.8011 4.59128 30.0517 4.20996 30.5638 3.70336C31.3591 2.91347 32.2416 2.48858 33.1186 2.48313C33.5272 2.47768 33.6198 2.49402 33.9085 2.6411C34.4369 2.90803 34.7583 3.4909 34.9163 4.466C34.949 4.68389 34.9707 6.18738 34.9707 8.31188C34.9707 12.0815 34.9707 12.087 35.2649 12.5282C35.5155 12.9041 36.1692 13.1111 36.6812 12.964C37.1661 12.8278 37.4711 12.4519 37.5801 11.8418C37.6563 11.4442 37.5637 5.34303 37.4766 4.65665C37.226 2.69558 36.703 1.43722 35.8859 0.827108C34.1264 -0.491172 31.5062 -0.169772 29.5451 1.5952L29.2618 1.85123L29.24 1.34461C29.2128 0.772636 29.093 0.473027 28.8042 0.25513C28.4393 -0.0172395 27.9272 -0.0771612 27.535 0.102597Z" fill="#E0E1E6"/>
<path fill-rule="evenodd" clip-rule="evenodd" d="M1.25941 0.11345C1.16681 0.140683 0.987045 0.249635 0.861752 0.353137C0.480432 0.679978 0.485879 0.636406 0.415067 4.76555C0.317013 10.7632 0.317013 11.6838 0.425957 12.0433C0.703776 12.9367 1.81505 13.2636 2.49598 12.648C2.62128 12.539 2.7738 12.3375 2.83372 12.2013C2.94268 11.9616 2.94812 11.8799 2.94812 8.96008C2.95357 6.35076 2.96447 5.90952 3.04618 5.56088C3.30221 4.43871 4.14111 3.42549 5.29052 2.85351C6.63059 2.18892 7.67649 2.40137 8.16676 3.43638C8.54808 4.24805 8.59711 4.90719 8.57532 8.85658L8.55898 12.0161L8.7224 12.3375C8.93485 12.7515 9.24535 12.9585 9.71383 13.0021C10.1769 13.0457 10.4601 12.9476 10.7597 12.648C11.1792 12.2285 11.1737 12.2394 11.1574 9.28692C11.152 7.87604 11.1193 6.28539 11.092 5.74609C10.9504 3.14767 10.4111 1.6115 9.36519 0.821613C8.15586 -0.0881059 6.2874 -0.186159 4.68041 0.571035C4.11387 0.837954 3.81971 1.02317 3.26952 1.4753L2.88275 1.79126L2.85006 1.36636C2.83372 1.09399 2.7847 0.865194 2.70844 0.723559C2.44696 0.206054 1.82595 -0.0554237 1.25941 0.11345Z" fill="#E0E1E6"/>
<path fill-rule="evenodd" clip-rule="evenodd" d="M26.6083 21.0961C26.5589 22.4739 25.9485 23.8553 24.8518 25.0701C23.8028 26.2339 22.366 27.1894 20.8409 27.7227C20.029 28.0102 18.6107 28.2529 17.7577 28.2545C16.0887 28.2471 14.7636 27.7222 13.8918 26.7137C12.8426 25.5051 12.5589 23.9165 13.095 22.2485C13.8553 19.8821 16.1446 17.6975 18.7466 16.8441C19.4614 16.6091 20.7688 16.3989 21.473 16.3966C22.9055 16.4051 24.1472 16.7713 25.0209 17.4493C26.0612 18.2518 26.6614 19.6297 26.6083 21.0961ZM23.8054 20.0188C23.5583 19.5259 23.0086 19.2252 22.1686 19.1259C21.6531 19.0625 20.2994 19.2573 19.6879 19.483C17.6082 20.2557 16.071 21.6605 15.591 23.2214C15.4428 23.7216 15.468 24.2409 15.6557 24.5882C16.0262 25.2505 17.0568 25.5646 18.2871 25.393C19.2794 25.2501 20.3793 24.7836 21.5297 24.018C22.5899 23.3149 23.3242 22.5651 23.6794 21.8204C24.0123 21.1119 24.0571 20.5055 23.8054 20.0188Z" fill="#0B56A6"/>
<path fill-rule="evenodd" clip-rule="evenodd" d="M33.4027 15.5037C32.4222 15.678 31.2564 16.25 30.3903 16.9854L30.0308 17.285L30.009 16.8601C29.96 16.0539 29.5677 15.6072 28.8541 15.5636C28.5709 15.5473 28.4782 15.5636 28.2222 15.6998C27.9716 15.8306 27.9008 15.9068 27.7755 16.152L27.623 16.4516L27.5685 19.829C27.5358 21.6865 27.5032 24.1379 27.4977 25.2764L27.4868 27.3464L27.6176 27.6351C28.1078 28.7246 29.6985 28.6484 30.0308 27.5153C30.0798 27.3519 30.0961 26.4803 30.1016 24.3776C30.1016 21.5449 30.107 21.4523 30.2214 21.0383C30.4012 20.4009 30.6954 19.8889 31.1638 19.3986C32.5257 17.9714 34.2961 17.5247 35.0751 18.4126C35.3093 18.6741 35.4401 18.941 35.5817 19.4531C35.707 19.878 35.707 19.9543 35.7342 23.6966L35.7669 27.5098L35.8922 27.7604C36.1482 28.2888 36.8074 28.534 37.4502 28.3433C37.7552 28.2507 38.1965 27.804 38.3 27.4826C38.4579 27.0032 38.3435 20.4881 38.1638 19.3659C37.9459 18.0313 37.4502 16.9636 36.7638 16.3426C36.1101 15.7543 35.4019 15.4928 34.3778 15.4656C34.0019 15.4601 33.5662 15.471 33.4027 15.5037Z" fill="#E0E1E6"/>
<path fill-rule="evenodd" clip-rule="evenodd" d="M5.42692 15.7982C3.49853 16.2068 1.6464 17.6722 0.714892 19.5243C-0.178494 21.3056 -0.238416 23.3375 0.556917 25.0208C1.24329 26.4807 2.45262 27.4285 4.03782 27.7554C5.49774 28.055 7.20823 27.6192 8.25413 26.6822L8.54285 26.4262L8.51561 28.1639C8.48837 30.0923 8.47203 30.2122 8.10706 30.9639C7.74753 31.6993 7.00123 32.3094 6.21679 32.5164C5.5631 32.6853 4.66973 32.5709 3.92887 32.2223C3.74911 32.1405 3.38413 31.89 3.11176 31.6721C2.49076 31.1709 2.18025 31.0184 1.76079 31.0184C0.851078 31.0184 0.28454 31.9662 0.703993 32.7997C1.00905 33.3989 1.8534 34.1125 2.71954 34.4993C5.16544 35.5942 7.82379 35.1802 9.44712 33.4479C9.87747 32.9849 10.0627 32.7071 10.3568 32.097C10.858 31.0456 11.0705 29.9343 11.1467 27.9133C11.2284 25.9032 11.223 17.2309 11.1467 16.8714C10.9561 15.9998 9.99187 15.6512 9.21833 16.1741L9.02767 16.2994L8.58643 16.1088C7.94908 15.8364 7.28449 15.7111 6.46193 15.7165C6.08606 15.7165 5.62302 15.7547 5.42692 15.7982ZM7.4915 18.3694C7.87281 18.522 8.3413 18.8325 8.46114 19.0177C8.54829 19.1539 8.55919 19.3173 8.55374 20.8589C8.54285 22.5204 8.54285 22.5531 8.40122 22.9834C8.14519 23.7787 7.75842 24.3017 7.11562 24.7266C6.27127 25.2877 5.2417 25.4892 4.45728 25.2495C3.03549 24.8192 2.2783 23.1196 2.72499 21.3655C3.11176 19.8511 4.1849 18.7235 5.63936 18.315C6.13509 18.1788 7.07205 18.206 7.4915 18.3694Z" fill="#E0E1E6"/>
<path fill-rule="evenodd" clip-rule="evenodd" d="M21.6771 12.6863C21.6771 12.4026 21.9071 12.1727 22.1908 12.1727C22.327 12.1727 22.4577 12.2268 22.554 12.3231C22.6503 12.4194 22.7044 12.5501 22.7044 12.6863C22.7044 12.97 22.4745 13.2 22.1908 13.2C21.9071 13.2 21.6771 12.97 21.6771 12.6863Z" fill="#0E1116"/>
<path fill-rule="evenodd" clip-rule="evenodd" d="M21.6771 12.6863C21.6771 12.4026 21.9071 12.1727 22.1908 12.1727C22.327 12.1727 22.4577 12.2268 22.554 12.3231C22.6503 12.4194 22.7044 12.5501 22.7044 12.6863C22.7044 12.97 22.4745 13.2 22.1908 13.2C21.9071 13.2 21.6771 12.97 21.6771 12.6863Z" stroke="#E0E1E6" stroke-width="0.309898" stroke-miterlimit="800"/>
<path fill-rule="evenodd" clip-rule="evenodd" d="M21.6771 16.3764C21.6771 16.0927 21.9071 15.8627 22.1908 15.8627C22.327 15.8627 22.4577 15.9168 22.554 16.0131C22.6503 16.1095 22.7044 16.2401 22.7044 16.3764C22.7044 16.66 22.4745 16.89 22.1908 16.89C21.9071 16.89 21.6771 16.66 21.6771 16.3764Z" fill="#0E1116"/>
<path fill-rule="evenodd" clip-rule="evenodd" d="M21.6771 16.3764C21.6771 16.0927 21.9071 15.8627 22.1908 15.8627C22.327 15.8627 22.4577 15.9168 22.554 16.0131C22.6503 16.1095 22.7044 16.2401 22.7044 16.3764C22.7044 16.66 22.4745 16.89 22.1908 16.89C21.9071 16.89 21.6771 16.66 21.6771 16.3764Z" stroke="#E0E1E6" stroke-width="0.309898" stroke-miterlimit="800"/>
</svg>
